<svg width="420" height="220" viewBox="0 0 420 220" xmlns="http://www.w3.org/2000/svg" role="img" aria-labelledby="title desc">
  <title id="title">Fudget showcase card</title>
  <desc id="desc">A clean showcase card for Fudget.</desc>
  <defs>
    <linearGradient id="bg" x1="20" y1="10" x2="400" y2="210" gradientUnits="userSpaceOnUse">
      <stop stop-color="#081E1B"/>
      <stop offset="0.48" stop-color="#0F3E38"/>
      <stop offset="1" stop-color="#081715"/>
    </linearGradient>
    <radialGradient id="glow" cx="0" cy="0" r="1" gradientUnits="userSpaceOnUse" gradientTransform="translate(332 78) rotate(35) scale(100 78)">
      <stop stop-color="#6CF8D0" stop-opacity="0.30"/>
      <stop offset="1" stop-color="#6CF8D0" stop-opacity="0"/>
    </radialGradient>
    <pattern id="grid" width="30" height="30" patternUnits="userSpaceOnUse">
      <path d="M30 0H0V30" fill="none" stroke="#98FFE2" stroke-opacity="0.08" stroke-width="1"/>
    </pattern>
  </defs>

  <rect width="420" height="220" rx="28" fill="url(#bg)"/>
  <rect width="420" height="220" rx="28" fill="url(#grid)"/>
  <rect x="1" y="1" width="418" height="218" rx="27" fill="none" stroke="#8EF7DB" stroke-opacity="0.16"/>
  <circle cx="332" cy="78" r="96" fill="url(#glow)"/>

  <path d="M286 156C290 178 308 194 332 194C356 194 374 178 378 156" fill="none" stroke="#C5FFF0" stroke-opacity="0.68" stroke-width="3"/>
  <path d="M296 157H368" fill="none" stroke="#C5FFF0" stroke-opacity="0.68" stroke-width="3"/>
  <path d="M307 142C307 134 313 127 321 127H343C351 127 357 134 357 142" fill="none" stroke="#93F7DE" stroke-opacity="0.44" stroke-width="2"/>
  <circle cx="302" cy="92" r="10" fill="#C8FFF1" fill-opacity="0.80"/>
  <circle cx="330" cy="72" r="14" fill="#9AFADF" fill-opacity="0.72"/>
  <circle cx="361" cy="98" r="9" fill="#DAFFF6" fill-opacity="0.84"/>
  <path d="M309 54C317 42 327 38 339 42" fill="none" stroke="#9AFADF" stroke-opacity="0.64" stroke-width="2"/>
  <path d="M347 46C357 35 369 32 382 37" fill="none" stroke="#9AFADF" stroke-opacity="0.48" stroke-width="2"/>

  <rect x="24" y="24" width="144" height="30" rx="15" fill="#11443B" stroke="#8EF7DB" stroke-opacity="0.18"/>
  <text x="47" y="44" fill="#C8FFF2" font-family="Verdana, Arial, sans-serif" font-size="13" letter-spacing="1.3">SHOWCASE / 03</text>
  <text x="24" y="88" fill="#9CF8E0" font-family="Verdana, Arial, sans-serif" font-size="14" letter-spacing="1.1">ML RECIPE APP</text>
  <text x="24" y="128" fill="#F5FFFB" font-family="Verdana, Arial, sans-serif" font-size="34" font-weight="700">Fudget</text>
  <text x="24" y="160" fill="#DFFAF2" font-family="Verdana, Arial, sans-serif" font-size="17">Turns detected ingredients into</text>
  <text x="24" y="184" fill="#DFFAF2" font-family="Verdana, Arial, sans-serif" font-size="17">practical meal suggestions.</text>
  <text x="24" y="206" fill="#C8FFF2" font-family="Verdana, Arial, sans-serif" font-size="16">Swift . CreateML . REST APIs</text>
</svg>
